<svg width="135" height="32" viewBox="0 0 135 32" fill="none" xmlns="http://www.w3.org/2000/svg">
<path d="M15.6073 15.6638C15.6243 15.6453 15.6355 15.6194 15.6355 15.5942V6.46171C15.6355 6.35274 15.4846 6.32332 15.4425 6.42384C13.6781 10.6373 12.3662 12.8292 9.72687 16.1348C9.69896 16.1697 9.6978 16.2202 9.72375 16.2565C11.7159 19.0411 12.2988 20.9273 12.6093 24.6002C12.6135 24.6519 12.6567 24.6925 12.7085 24.6925H19.1825C19.2342 24.6925 19.2773 24.6521 19.2819 24.6007C19.5811 21.2204 20.1743 19.3589 22.173 16.2543C22.1958 16.2188 22.1939 16.1716 22.1681 16.1381C19.4385 12.591 18.1314 10.3918 16.5301 6.44256C16.4889 6.34091 16.3362 6.36938 16.3362 6.47907V15.5872C16.3362 15.6165 16.3513 15.646 16.3734 15.6651C19.615 18.4606 12.645 18.9052 15.6073 15.6638Z" fill="url(#paint0_linear_2844_1242)"/>
<path d="M25.6129 12.035C25.5503 11.9722 25.5948 11.8652 25.6834 11.8652H27.9897C28.0162 11.8652 28.0416 11.8758 28.0603 11.8946L31.5887 15.4461C32.1345 16.0219 32.1388 16.3712 31.5887 17.0228L16.9271 31.4536C16.2231 32.1451 15.8075 32.2182 15.0136 31.4536L11.1734 27.6196C11.1356 27.5818 11.1346 27.5209 11.17 27.4809C11.5456 27.0584 11.7226 26.7022 11.8766 25.996C11.8936 25.9186 11.9894 25.889 12.0459 25.9446L15.9407 29.7811C15.9795 29.8193 16.0419 29.8192 16.0806 29.7808L29.6853 16.2646C29.7243 16.2258 29.7245 16.1628 29.6857 16.1238L25.6129 12.035Z" fill="url(#paint1_linear_2844_1242)"/>
<path d="M20.0511 3.87237C20.0701 3.89108 20.0809 3.91666 20.0809 3.94335V6.31065C20.0809 6.39879 19.9748 6.44341 19.9118 6.38178L16.0544 2.60727C16.0155 2.56925 15.9533 2.56945 15.9147 2.60773L2.36367 16.0442C2.32465 16.0829 2.32438 16.1459 2.36307 16.185L10.0531 23.9419C10.0716 23.9606 10.0819 23.9857 10.0819 24.012V26.2446C10.0819 26.333 9.97536 26.3776 9.91246 26.3154L0.568128 17.0764C-0.239975 16.2876 -0.13703 15.8852 0.568128 15.2057L15.041 0.935309C15.7713 0.14706 16.2205 0.171965 17.0623 0.935309L20.0511 3.87237Z" fill="url(#paint2_linear_2844_1242)"/>
<path d="M25.5068 9.03223C25.5618 9.03223 25.6063 9.07702 25.6064 9.13184V11.0713C25.6062 11.1261 25.5617 11.1709 25.5068 11.1709H23.4961C23.4412 11.1709 23.3967 11.1261 23.3965 11.0713V9.13184C23.3966 9.07702 23.4411 9.03223 23.4961 9.03223H25.5068ZM23.7539 4.48926C23.8087 4.48933 23.8534 4.53405 23.8535 4.58887V7.08887C23.8535 7.14379 23.8087 7.1884 23.7539 7.18848H21.2578C21.2028 7.18848 21.1582 7.14383 21.1582 7.08887V4.58887C21.1583 4.534 21.2029 4.48926 21.2578 4.48926H23.7539ZM26.3662 0C26.4212 0 26.4658 0.0446446 26.4658 0.0996094V2.43945C26.4657 2.4943 26.4212 2.53906 26.3662 2.53906H23.9785C23.9236 2.53906 23.879 2.4943 23.8789 2.43945V0.0996094C23.8789 0.0446446 23.9235 0 23.9785 0H26.3662Z" fill="#FFD634"/>
<path d="M41.68 24V6.72H48.592C49.824 6.72 50.82 6.968 51.58 7.464C52.34 7.952 52.896 8.568 53.248 9.312C53.6 10.056 53.776 10.808 53.776 11.568C53.776 12.536 53.556 13.34 53.116 13.98C52.684 14.62 52.088 15.048 51.328 15.264V14.664C52.408 14.888 53.216 15.388 53.752 16.164C54.296 16.94 54.568 17.808 54.568 18.768C54.568 19.8 54.376 20.708 53.992 21.492C53.616 22.276 53.04 22.892 52.264 23.34C51.488 23.78 50.512 24 49.336 24H41.68ZM44.992 20.928H49C49.44 20.928 49.832 20.836 50.176 20.652C50.52 20.46 50.788 20.196 50.98 19.86C51.18 19.516 51.28 19.112 51.28 18.648C51.28 18.24 51.196 17.876 51.028 17.556C50.86 17.236 50.604 16.984 50.26 16.8C49.924 16.608 49.504 16.512 49 16.512H44.992V20.928ZM44.992 13.464H48.544C48.912 13.464 49.24 13.4 49.528 13.272C49.816 13.144 50.044 12.948 50.212 12.684C50.38 12.412 50.464 12.064 50.464 11.64C50.464 11.112 50.3 10.668 49.972 10.308C49.644 9.948 49.168 9.768 48.544 9.768H44.992V13.464ZM56.7213 24V6.36H59.9853V24H56.7213ZM68.9348 24.36C67.6308 24.36 66.4868 24.068 65.5028 23.484C64.5188 22.9 63.7508 22.096 63.1988 21.072C62.6548 20.04 62.3828 18.856 62.3828 17.52C62.3828 16.168 62.6628 14.98 63.2228 13.956C63.7828 12.924 64.5548 12.12 65.5388 11.544C66.5228 10.968 67.6548 10.68 68.9348 10.68C70.2388 10.68 71.3828 10.972 72.3668 11.556C73.3588 12.14 74.1308 12.948 74.6828 13.98C75.2348 15.004 75.5108 16.184 75.5108 17.52C75.5108 18.864 75.2308 20.052 74.6708 21.084C74.1188 22.108 73.3468 22.912 72.3548 23.496C71.3708 24.072 70.2308 24.36 68.9348 24.36ZM68.9348 21.312C69.9828 21.312 70.7628 20.96 71.2748 20.256C71.7948 19.544 72.0548 18.632 72.0548 17.52C72.0548 16.368 71.7908 15.448 71.2628 14.76C70.7428 14.072 69.9668 13.728 68.9348 13.728C68.2228 13.728 67.6388 13.888 67.1828 14.208C66.7268 14.528 66.3868 14.972 66.1628 15.54C65.9468 16.108 65.8388 16.768 65.8388 17.52C65.8388 18.68 66.0988 19.604 66.6188 20.292C67.1468 20.972 67.9188 21.312 68.9348 21.312ZM83.2137 30.12C82.4777 30.12 81.7777 30 81.1137 29.76C80.4497 29.528 79.8537 29.2 79.3257 28.776C78.8057 28.36 78.3817 27.872 78.0537 27.312L81.0777 25.848C81.2857 26.232 81.5817 26.524 81.9657 26.724C82.3577 26.924 82.7817 27.024 83.2377 27.024C83.7257 27.024 84.1857 26.94 84.6177 26.772C85.0497 26.612 85.3937 26.368 85.6497 26.04C85.9137 25.72 86.0377 25.32 86.0217 24.84V21.072H86.4297V11.04H89.2857V24.888C89.2857 25.208 89.2697 25.508 89.2377 25.788C89.2137 26.076 89.1657 26.36 89.0937 26.64C88.8857 27.432 88.4977 28.084 87.9297 28.596C87.3697 29.108 86.6817 29.488 85.8657 29.736C85.0497 29.992 84.1657 30.12 83.2137 30.12ZM82.9257 24.36C81.7337 24.36 80.6897 24.06 79.7937 23.46C78.8977 22.86 78.1977 22.044 77.6937 21.012C77.1977 19.98 76.9497 18.816 76.9497 17.52C76.9497 16.2 77.2017 15.028 77.7057 14.004C78.2177 12.972 78.9337 12.16 79.8537 11.568C80.7737 10.976 81.8537 10.68 83.0937 10.68C84.3257 10.68 85.3617 10.98 86.2017 11.58C87.0417 12.18 87.6777 12.996 88.1097 14.028C88.5417 15.06 88.7577 16.224 88.7577 17.52C88.7577 18.816 88.5377 19.98 88.0977 21.012C87.6657 22.044 87.0177 22.86 86.1537 23.46C85.2897 24.06 84.2137 24.36 82.9257 24.36ZM83.4537 21.456C84.1817 21.456 84.7617 21.292 85.1937 20.964C85.6337 20.636 85.9497 20.176 86.1417 19.584C86.3337 18.992 86.4297 18.304 86.4297 17.52C86.4297 16.736 86.3337 16.048 86.1417 15.456C85.9497 14.864 85.6417 14.404 85.2177 14.076C84.8017 13.748 84.2537 13.584 83.5737 13.584C82.8457 13.584 82.2457 13.764 81.7737 14.124C81.3097 14.476 80.9657 14.952 80.7417 15.552C80.5177 16.144 80.4057 16.8 80.4057 17.52C80.4057 18.248 80.5137 18.912 80.7297 19.512C80.9457 20.104 81.2777 20.576 81.7257 20.928C82.1737 21.28 82.7497 21.456 83.4537 21.456ZM97.7103 30.12C96.9743 30.12 96.2743 30 95.6103 29.76C94.9463 29.528 94.3503 29.2 93.8223 28.776C93.3023 28.36 92.8783 27.872 92.5503 27.312L95.5743 25.848C95.7823 26.232 96.0783 26.524 96.4623 26.724C96.8543 26.924 97.2783 27.024 97.7343 27.024C98.2223 27.024 98.6823 26.94 99.1143 26.772C99.5463 26.612 99.8903 26.368 100.146 26.04C100.41 25.72 100.534 25.32 100.518 24.84V21.072H100.926V11.04H103.782V24.888C103.782 25.208 103.766 25.508 103.734 25.788C103.71 26.076 103.662 26.36 103.59 26.64C103.382 27.432 102.994 28.084 102.426 28.596C101.866 29.108 101.178 29.488 100.362 29.736C99.5463 29.992 98.6623 30.12 97.7103 30.12ZM97.4223 24.36C96.2303 24.36 95.1863 24.06 94.2903 23.46C93.3943 22.86 92.6943 22.044 92.1903 21.012C91.6943 19.98 91.4463 18.816 91.4463 17.52C91.4463 16.2 91.6983 15.028 92.2023 14.004C92.7143 12.972 93.4303 12.16 94.3503 11.568C95.2703 10.976 96.3503 10.68 97.5903 10.68C98.8223 10.68 99.8583 10.98 100.698 11.58C101.538 12.18 102.174 12.996 102.606 14.028C103.038 15.06 103.254 16.224 103.254 17.52C103.254 18.816 103.034 19.98 102.594 21.012C102.162 22.044 101.514 22.86 100.65 23.46C99.7863 24.06 98.7103 24.36 97.4223 24.36ZM97.9503 21.456C98.6783 21.456 99.2583 21.292 99.6903 20.964C100.13 20.636 100.446 20.176 100.638 19.584C100.83 18.992 100.926 18.304 100.926 17.52C100.926 16.736 100.83 16.048 100.638 15.456C100.446 14.864 100.138 14.404 99.7143 14.076C99.2983 13.748 98.7503 13.584 98.0703 13.584C97.3423 13.584 96.7423 13.764 96.2703 14.124C95.8063 14.476 95.4623 14.952 95.2383 15.552C95.0143 16.144 94.9023 16.8 94.9023 17.52C94.9023 18.248 95.0103 18.912 95.2263 19.512C95.4423 20.104 95.7743 20.576 96.2223 20.928C96.6703 21.28 97.2463 21.456 97.9503 21.456ZM112.687 24.36C111.359 24.36 110.187 24.076 109.171 23.508C108.163 22.932 107.371 22.144 106.795 21.144C106.227 20.136 105.943 18.984 105.943 17.688C105.943 16.272 106.223 15.04 106.783 13.992C107.343 12.944 108.115 12.132 109.099 11.556C110.083 10.972 111.215 10.68 112.495 10.68C113.855 10.68 115.011 11 115.963 11.64C116.915 12.28 117.619 13.18 118.075 14.34C118.531 15.5 118.691 16.864 118.555 18.432H115.327V17.232C115.327 15.912 115.115 14.964 114.691 14.388C114.275 13.804 113.591 13.512 112.639 13.512C111.527 13.512 110.707 13.852 110.179 14.532C109.659 15.204 109.399 16.2 109.399 17.52C109.399 18.728 109.659 19.664 110.179 20.328C110.707 20.984 111.479 21.312 112.495 21.312C113.135 21.312 113.683 21.172 114.139 20.892C114.595 20.612 114.943 20.208 115.183 19.68L118.447 20.616C117.959 21.8 117.187 22.72 116.131 23.376C115.083 24.032 113.935 24.36 112.687 24.36ZM108.391 18.432V16.008H116.983V18.432H108.391ZM129.265 24V17.88C129.265 17.584 129.249 17.208 129.217 16.752C129.185 16.288 129.085 15.824 128.917 15.36C128.749 14.896 128.473 14.508 128.089 14.196C127.713 13.884 127.177 13.728 126.481 13.728C126.201 13.728 125.901 13.772 125.581 13.86C125.261 13.948 124.961 14.12 124.681 14.376C124.401 14.624 124.169 14.992 123.985 15.48C123.809 15.968 123.721 16.616 123.721 17.424L121.849 16.536C121.849 15.512 122.057 14.552 122.473 13.656C122.889 12.76 123.513 12.036 124.345 11.484C125.185 10.932 126.241 10.656 127.513 10.656C128.529 10.656 129.357 10.828 129.997 11.172C130.637 11.516 131.133 11.952 131.485 12.48C131.845 13.008 132.101 13.56 132.253 14.136C132.405 14.704 132.497 15.224 132.529 15.696C132.561 16.168 132.577 16.512 132.577 16.728V24H129.265ZM120.409 24V11.04H123.313V15.336H123.721V24H120.409Z" fill="black"/>
<defs>
<linearGradient id="paint0_linear_2844_1242" x1="17.5" y1="7.99997" x2="10.9192" y2="26.7765" gradientUnits="userSpaceOnUse">
<stop stop-color="#DDDDDD"/>
<stop offset="1" stop-color="#777777"/>
</linearGradient>
<linearGradient id="paint1_linear_2844_1242" x1="20" y1="5.99997" x2="11.5" y2="28" gradientUnits="userSpaceOnUse">
<stop stop-color="#9810FA"/>
<stop offset="1" stop-color="#00BCFF"/>
</linearGradient>
<linearGradient id="paint2_linear_2844_1242" x1="20" y1="5.99997" x2="11.5" y2="28" gradientUnits="userSpaceOnUse">
<stop stop-color="#9810FA"/>
<stop offset="1" stop-color="#00BCFF"/>
</linearGradient>
</defs>
</svg>
